# xmcd CD database file
#
# Track frame offsets:
#	150
#	99132
#	128162
#	144252
#	152180
#	173382
#	191927
#	201932
#	225582
#	241897
#	249020
#	281475
#	302275
#
# Disc length: 4339 seconds
#
# Revision: 0
# Processed by: cddbd v1.5.2PL0 Copyright (c) Steve Scherf et al.
# Submitted via: CDex 1.50Beta7
#
DISCID=9b10f10d
DTITLE=Maradisha - Moonsky
DYEAR=1997
DGENRE=New Age
TTITLE0=Moonsky
TTITLE1=Moon
TTITLE2=Universe
TTITLE3=Desire
TTITLE4=Universe part 2
TTITLE5=Landing - Standing
TTITLE6=Moonsky - part 2
TTITLE7=song
TTITLE8=song - part 2
TTITLE9=The Many Stars
TTITLE10=Moonsky - part 3
TTITLE11=Night of Romance
TTITLE12=Thank Youniverse
EXTD=
EXTT0=
EXTT1=
EXTT2=
EXTT3=
EXTT4=
EXTT5=
EXTT6=
EXTT7=
EXTT8=
EXTT9=
EXTT10=
EXTT11=
EXTT12=
PLAYORDER=
